<svg width="82" height="30" viewBox="0 0 82 30" fill="none" xmlns="http://www.w3.org/2000/svg">
<g id="&#230;&#148;&#175;&#228;&#187;&#152;&#229;&#174;&#157;&#230;&#148;&#175;&#228;&#187;&#152;">
<path id="&#230;&#148;&#175;&#228;&#187;&#152;&#229;&#174;&#157;" d="M25.5159 1H6.48494C5.8967 0.999137 5.31404 1.1145 4.77027 1.33949C4.22649 1.56449 3.73224 1.89472 3.31575 2.31131C2.89927 2.7279 2.5687 3.2227 2.34294 3.76743C2.11718 4.31217 2.00065 4.89617 2 5.48608L2 24.5147C2 26.9915 4.00694 29 6.48494 29H25.5159C26.104 29.0009 26.6866 28.8855 27.2302 28.6606C27.7739 28.4356 28.2681 28.1054 28.6845 27.6889C29.1009 27.2724 29.4314 26.7777 29.6571 26.2331C29.8828 25.6884 29.9994 25.1045 30 24.5147V24.3314C30 24.3314 22.7167 21.2955 19.0396 19.5274C16.5732 22.5624 13.3911 24.4041 10.0879 24.4041C4.50106 24.4041 2.60365 19.5158 5.24965 16.2974C5.82612 15.5954 6.80776 14.9265 8.33047 14.5507C10.7121 13.966 14.5036 14.9158 18.0564 16.0885C18.718 14.864 19.2467 13.5718 19.6334 12.2342H8.68294V11.1251H14.3291V9.13639H7.49129V8.02643H14.3299V5.19042C14.3299 5.19042 14.3299 4.71225 14.8141 4.71225H17.5738V8.02643H24.3349V9.13639H17.5738V11.1242H23.0931C22.5652 13.2872 21.7622 15.2783 20.7559 17.0267C22.4309 17.6328 23.9347 18.2068 25.0547 18.5818C29.0851 19.9312 30 20.0047 30 20.0047V5.48608C29.9995 4.89621 29.883 4.31223 29.6574 3.7675C29.4317 3.22276 29.1012 2.72796 28.6848 2.31136C28.2684 1.89476 27.7742 1.56452 27.2304 1.33951C26.6867 1.1145 26.1041 0.999137 25.5159 1V1ZM8.80565 16.2099C8.10647 16.2793 6.79294 16.589 6.07482 17.2232C3.92212 19.1004 5.21012 22.531 9.56576 22.531C12.0973 22.531 14.628 20.9123 16.6152 18.32C13.7888 16.9416 11.3932 15.9547 8.80565 16.2099V16.2099Z" fill="#1678FF"/>
<path id="Vector" d="M77.6679 20.272L76.4325 22.9374L75.1787 20.272H73.9539L75.8614 23.9572V26.5279H76.9851V23.9572L76.9918 23.9429L78.8917 20.272H77.6679ZM68.6226 21.8846L69.4941 24.4792H67.7204L68.6226 21.8846ZM69.7618 25.2676L70.1816 26.5275H71.3592L69.0406 20.2715H68.1402L65.8292 26.5275H67.0078L67.4459 25.2676H69.7618ZM60.9728 23.2626H59.722V21.1224H60.9728C61.6016 21.1224 61.9772 21.6687 61.9772 22.1968C61.9772 22.7134 61.6257 23.2625 60.9728 23.2625M61.0364 20.2718H58.5895V26.5278H59.7219V24.1227H61.0363C62.2573 24.1227 63.1104 23.3305 63.1104 22.1968C63.1104 21.063 62.2573 20.2719 61.0363 20.2719M52.865 26.5279H53.9984V20.2719H52.8651L52.865 26.5279ZM44.8988 20.272V26.528H48.7109V25.6756H46.0312V20.272H44.8988ZM38.4475 21.8846L39.318 24.4792H37.5453L38.4475 21.8846ZM39.5866 25.2676L40.0065 26.5275H41.1832L38.8645 20.2715H37.9652L35.6541 26.5275H36.8317L37.2698 25.2676H39.5866ZM47.559 8.04235H42.7011V6.31261H48.3342V5.23534H42.7011V3.0435H40.1898C39.9144 3.0435 39.692 3.27309 39.692 3.55532V5.23534H34.0983V6.31261H39.692V8.04244H34.9709V9.11871H44.3745C44.3745 9.11871 43.8536 11.1404 41.2739 13.3129C38.9629 11.5746 38.1906 10.1902 38.1906 10.1902H35.6678C36.6885 11.9478 38.1386 13.3551 39.7005 14.4715C38.2658 15.3976 36.4053 16.2903 34 17.005V18.2946C34 18.2946 37.7111 17.5991 41.298 15.4991C44.8907 17.5829 48.4987 18.2946 48.4987 18.2946V17.0738C46.1896 16.2387 44.3601 15.3201 42.9234 14.4343C45.0043 12.9026 46.8281 10.8236 47.559 8.04244M63.3392 3.25938H60.8105V5.88461H54.5776V6.94177H60.8105V16.3801C60.7884 16.5964 60.617 16.7647 60.4023 16.7762H59.1168V17.8698H62.3946C62.9136 17.8488 63.3277 17.421 63.3392 16.891V6.94168H64.3657V5.88452H63.3393L63.3392 3.25938ZM58.0064 8.7227C57.914 8.53525 57.7253 8.40601 57.5058 8.40409H55.3989L57.0408 13.5398H59.5328L58.0064 8.7227ZM51.7832 3.13508L48.8828 9.95168H51.108V18.0627H53.5414V7.30361H52.6595L54.4919 3.13517L51.7832 3.13508ZM79.9995 17.6906L79.1108 14.7076C79.0511 14.5172 78.8778 14.3795 78.6717 14.3795H76.3155L76.9991 16.6708H74.2287V12.2317H79.6682V11.1755H74.2287V9.0859H79.6682V8.02965H66.0943V9.0859H71.5328V11.1754H66.0943V12.2316H71.5328V16.6707H66.0943V17.727H80L79.9884 17.6906H79.9995ZM68.9225 5.50952H76.8444V7.06799H79.6745V5.22145C79.6735 5.21761 79.6735 5.21569 79.6735 5.21094C79.6735 4.79573 79.3462 4.45994 78.9407 4.45327H74.3611V3H71.4V4.45318H66.0933V7.06799H68.9224L68.9225 5.50952Z" fill="#3E3A39"/>
</g>
</svg>
