<svg width="124" height="28" viewBox="0 0 124 28" fill="none" xmlns="http://www.w3.org/2000/svg">
<g id="&#229;&#190;&#174;&#228;&#191;&#161;&#230;&#148;&#175;&#228;&#187;&#152;">
<g id="&#229;&#175;&#188;&#232;&#136;&#170;_x2F_&#229;&#164;&#180;&#233;&#131;&#168;&#232;&#143;&#156;&#229;&#141;&#149;_x5F_&#229;&#134;&#133;&#229;&#174;&#185;">
<g id="logo">
<g id="&#229;&#190;&#174;&#228;&#191;&#161;&#230;&#148;&#175;&#228;&#187;&#152;logo">
<path id="XMLID_81_" fill-rule="evenodd" clip-rule="evenodd" d="M11.408 17.7278C11.2427 17.8107 11.0773 17.8107 10.912 17.8107C10.4987 17.8107 10.168 17.5621 10.0027 17.2308L9.92 17.0651L7.02667 10.7692C7.02667 10.6864 7.02667 10.6036 7.02667 10.5207C7.02667 10.1893 7.27467 10.0237 7.52267 10.0237C7.60533 10.0237 7.77067 10.0237 7.85333 10.1065L11.2427 12.5089C11.4907 12.6746 11.8213 12.7574 12.152 12.7574C12.3173 12.7574 12.4827 12.7574 12.7307 12.6746L28.52 5.5503C25.7093 2.15385 20.9973 0 15.7067 0C7.02667 0.16568 0 6.04734 0 13.3373C0 17.3136 2.06667 20.8757 5.37333 23.2781C5.62133 23.4438 5.78667 23.7751 5.78667 24.1065C5.78667 24.1894 5.78667 24.355 5.704 24.4379C5.456 25.432 5.04267 27.0059 5.04267 27.0888C5.04267 27.1716 4.96 27.3373 4.96 27.503C4.96 27.8343 5.208 28 5.456 28C5.53867 28 5.704 28 5.78667 27.9172L9.176 25.929C9.424 25.7633 9.75467 25.6805 10.0027 25.6805C10.168 25.6805 10.3333 25.6805 10.4987 25.7633C12.0693 26.2604 13.8053 26.5089 15.624 26.5089C24.2213 26.5089 31.248 20.6272 31.248 13.3373C31.248 11.1834 30.5867 9.02959 29.512 7.2071L11.4907 17.645L11.408 17.7278Z" fill="#22AC38"/>
<path id="XMLID_80_" d="M80.683 9.4436H68.9443V10.5205H80.683V9.4436Z" fill="#494949"/>
<path id="XMLID_79_" d="M80.683 12.7571H68.9443V13.9168H80.683V12.7571Z" fill="#494949"/>
<path id="XMLID_76_" d="M80.3517 22.6153V16.1538H69.2744V22.5325L80.3517 22.6153ZM70.3491 17.2307H79.1944V21.5384H70.3491V17.2307Z" fill="#494949"/>
<path id="XMLID_75_" fill-rule="evenodd" clip-rule="evenodd" d="M65.72 23.278V8.53241C66.3813 7.04129 66.96 5.55016 67.456 3.9762L66.464 3.31348C65.3893 7.04129 63.9013 10.3549 62 13.1715L62.5787 14.2484C63.24 13.2543 63.9013 12.0945 64.6453 10.8519V23.278H65.72Z" fill="#494949"/>
<path id="XMLID_74_" fill-rule="evenodd" clip-rule="evenodd" d="M108.376 23.278V8.53241C109.037 7.04129 109.616 5.55016 110.112 3.9762L109.037 3.31348C107.963 7.04129 106.475 10.3549 104.573 13.1715L105.152 14.2484C105.813 13.2543 106.475 12.0945 107.219 10.8519V23.278H108.376Z" fill="#494949"/>
<path id="XMLID_73_" fill-rule="evenodd" clip-rule="evenodd" d="M81.9231 6.0472H75.0618L75.8058 5.633C75.7231 5.46732 75.4751 4.97028 75.2271 4.47324C74.9791 3.9762 74.8138 3.562 74.6484 3.31348L73.5738 3.9762C73.9044 4.63892 74.2351 5.30164 74.5658 5.96436C74.5658 6.0472 74.6484 6.13004 74.6484 6.13004H67.7871V7.28981H81.9231V6.0472V6.0472Z" fill="#494949"/>
<path id="XMLID_72_" fill-rule="evenodd" clip-rule="evenodd" d="M51.6663 5.21874H50.5916V8.94655H48.6076V3.64478H47.5329V8.94655H45.4663V5.21874H44.3916V10.0235H51.6663V5.21874Z" fill="#494949"/>
<path id="XMLID_71_" d="M51.088 12.0947H44.7227V13.1716H51.088V12.0947Z" fill="#494949"/>
<path id="XMLID_70_" fill-rule="evenodd" clip-rule="evenodd" d="M46.1284 17.2308V16.3195H49.3524V18.639C49.3524 19.4675 49.2697 19.716 49.0217 20.1302L49.6831 21.2899C50.2617 20.7929 51.1711 20.0473 52.5764 18.8047L52.0804 17.8935L50.4271 19.3018V15.3254H45.0537V16.8994C45.2191 19.0532 44.6404 20.6272 43.4004 21.6213L43.9791 22.6154C45.5497 21.2899 46.2111 19.5503 46.1284 17.2308Z" fill="#494949"/>
<path id="XMLID_69_" fill-rule="evenodd" clip-rule="evenodd" d="M39.2666 8.61525L39.9279 9.69217C41.5813 8.03537 42.9866 6.0472 43.9786 3.89336L42.9866 3.31348C41.9119 5.46732 40.6719 7.28981 39.2666 8.61525Z" fill="#494949"/>
<path id="XMLID_68_" fill-rule="evenodd" clip-rule="evenodd" d="M38.9365 15.3256L39.5152 16.3197C40.0939 15.5741 40.7552 14.8286 41.3339 14.0002V23.1955H42.4085V12.2605C42.9045 11.4321 43.3179 10.4381 43.8139 9.44397L42.8219 8.78125C41.8299 11.2665 40.5072 13.5031 38.9365 15.3256Z" fill="#494949"/>
<path id="XMLID_65_" d="M59.3543 8.3669V7.28998H54.6423C55.0556 6.04737 55.5516 4.63909 55.6343 3.39648H54.5596C53.8983 6.62725 52.8236 9.44382 51.5009 11.5977L52.1623 12.7574L52.6583 11.7633C52.8236 11.432 52.9889 11.1835 53.0716 10.9349C53.4023 13.7515 53.9809 16.071 54.8076 17.8107C54.0636 19.1361 52.8236 20.5444 51.2529 21.9527L51.8316 23.0296C53.4849 21.4557 54.6423 20.0474 55.3036 18.9704C55.9649 20.2131 57.2049 21.7042 58.5276 23.1125L59.1063 22.0355C57.6183 20.6273 56.4609 19.1361 55.8823 17.8935C57.0396 15.7397 57.7836 12.5089 58.1143 8.28406H59.3543V8.3669ZM55.4689 16.5681C54.8076 14.7456 54.3116 12.3432 53.9809 9.27814C54.0636 8.94678 54.2289 8.61542 54.3943 8.3669H57.2049C56.9569 11.7633 56.3783 14.5799 55.4689 16.5681Z" fill="#494949"/>
<path id="XMLID_35_" d="M103.251 7.20712V6.04736H94.323V3.14795H93.1656V6.04736H84.3203V7.20712H93.1656V10.9349H93.0003H87.379V11.929C87.379 11.929 88.2883 13.9172 90.0243 16.1539C90.7683 17.0651 91.595 17.9764 92.6697 18.8876C90.603 20.1302 88.123 21.3728 84.651 22.0355L85.3123 23.1953C85.3123 23.1953 89.4456 22.284 93.579 19.6332C94.1576 19.9645 96.7203 22.0355 101.515 23.1953L102.011 22.284C102.011 22.284 100.771 21.9527 98.8696 21.2071C97.547 20.7101 95.8936 19.9645 94.4056 18.8876C96.7203 17.1479 98.787 14.6627 100.027 11.5148L99.1176 10.9349H94.323V7.20712H103.251ZM98.7043 11.929C98.7043 11.929 97.547 15.2426 93.579 18.142C91.6776 16.6509 89.7763 14.5799 88.5363 11.929H98.7043V11.929Z" fill="#494949"/>
<path id="XMLID_34_" fill-rule="evenodd" clip-rule="evenodd" d="M117.717 21.787C117.469 21.787 117.304 21.787 117.056 21.787V22.9468C117.469 22.9468 117.8 22.9468 118.048 22.9468C119.205 22.9468 119.784 22.6983 120.28 22.2012C120.776 21.7042 120.941 21.0415 120.941 20.0474V9.44382H124V8.28406H120.941V3.39648H119.784V8.28406H110.442V9.44382H119.784V20.0474C119.701 21.29 118.957 21.787 117.717 21.787Z" fill="#494949"/>
<path id="XMLID_33_" fill-rule="evenodd" clip-rule="evenodd" d="M115.155 17.9761L116.312 17.3134C115.734 16.0708 114.907 14.4139 113.915 12.4258L112.923 13.0885C113.502 14.4139 114.246 16.0708 115.155 17.9761Z" fill="#494949"/>
</g>
</g>
</g>
</g>
</svg>
